<?xml version="1.0" encoding="UTF-8"?>
<svg version="1.1" xmlns="http://www.w3.org/2000/svg" width="500" height="500">
<path d="M0 0 C165 0 330 0 500 0 C500 165 500 330 500 500 C335 500 170 500 0 500 C0 335 0 170 0 0 Z " fill="#FEFEFE" transform="translate(0,0)"/>
<path d="M0 0 C0.66 0 1.32 0 2 0 C1.2674612 14.65077598 -5.85996902 25.41998912 -16.35546875 35.234375 C-22.57256247 40.77003356 -29.47788502 44.86514773 -36.625 49.0625 C-37.92899358 49.83947502 -39.23238319 50.61746461 -40.53515625 51.39648438 C-43.68325395 53.27602692 -46.83921047 55.14186021 -50 57 C-46.9346058 55.97820193 -44.49535287 54.50755436 -41.76098633 52.81347656 C-3.38330699 29.21398921 45.9478318 21.16664349 90.10205078 30.66748047 C120.84431673 38.0120999 149.48690032 51.77757478 173 73 C174.43637643 74.23047946 175.87372826 75.45982218 177.3125 76.6875 C206.25383074 102.37293103 225.80616567 139.18241258 233 177 C233.14953125 177.76795898 233.2990625 178.53591797 233.453125 179.32714844 C241.35238193 221.42814496 233.13543073 264.47487909 213 302 C212.01 302 211.02 302 210 302 C211.27074936 297.8781277 212.84953171 294.03940547 214.6652832 290.14038086 C221.80549332 274.75320247 227.31625496 259.03458498 229.66772461 242.19604492 C229.91629506 240.5532152 230.20189665 238.91591337 230.50610352 237.2824707 C231.86130668 229.90695693 232.35126761 222.80627853 232.3125 215.3125 C232.30686035 214.1469458 232.3012207 212.9813916 232.29541016 211.78051758 C231.59428375 160.36573843 210.77534719 114.89101619 174.71875 78.7109375 C139.86921935 45.89031788 91.74583293 29.6981915 44.32421875 30.78125 C29.43176929 31.31189135 15.37466333 34.1314812 1 38 C-0.25039062 38.33515625 -1.50078125 38.6703125 -2.7890625 39.015625 C-21.24687062 44.59879946 -43.33987982 53.93162907 -57 68 C-56.33057373 67.85997559 -55.66114746 67.71995117 -54.97143555 67.57568359 C-47.61162715 66.23083453 -40.48851251 65.80642634 -33.01953125 65.7265625 C-32.03411346 65.71542419 -31.04869568 65.70428589 -30.03341675 65.69281006 C-25.92013236 65.65390379 -21.80706931 65.62686847 -17.69360352 65.61914062 C-14.65601137 65.60956511 -11.61940053 65.57576134 -8.58203125 65.5390625 C-7.66823196 65.54410797 -6.75443268 65.54915344 -5.8129425 65.55435181 C1.61342056 65.44219824 7.58642614 63.37721345 14.09928894 59.86929321 C16 59 16 59 19 59 C15.00844569 68.0501578 5.5737091 72.18026478 -3 76 C-3.74701172 76.33338379 -4.49402344 76.66676758 -5.26367188 77.01025391 C-17.43645499 81.41322168 -31.92470152 80.36020024 -44.68334961 80.45629883 C-64.90168569 80.50569473 -64.90168569 80.50569473 -82.25 89.8125 C-87.78884674 95.57488764 -93.42160457 102.84320914 -97 110 C-96.35417969 109.46632813 -95.70835938 108.93265625 -95.04296875 108.3828125 C-83.47676973 99.23744583 -70.56245778 92.35775343 -56.6875 87.375 C-56.00083252 87.1272583 -55.31416504 86.8795166 -54.60668945 86.62426758 C-50.6226244 85.28275007 -47.19524926 84.75283803 -43 85 C-48.90744609 99.62961649 -68.23333377 110.29135212 -81.84765625 116.09667969 C-84.2195942 117.09216181 -86.59360956 118.08249487 -88.96875 119.0703125 C-90.23706665 119.59902954 -90.23706665 119.59902954 -91.53100586 120.13842773 C-93.17692683 120.8205111 -94.82604786 121.49494046 -96.47875977 122.16040039 C-104.60582802 125.49054554 -109.45043167 128.46731806 -113 136.625 C-113.33322266 137.36121582 -113.66644531 138.09743164 -114.00976562 138.85595703 C-120.34380108 152.49730729 -120.34380108 152.49730729 -123 167 C-122.59910156 166.46632812 -122.19820312 165.93265625 -121.78515625 165.3828125 C-115.84421645 157.59627462 -109.44135708 150.34714427 -102.4375 143.5 C-95.32168102 136.44627369 -89.50357492 128.96384623 -85 120 C-83.515 120.495 -83.515 120.495 -82 121 C-81.45759679 139.35130847 -88.40503055 152.29276204 -100.6809082 165.54467773 C-105.78040334 170.93212407 -111.21288292 175.96587696 -117.00390625 180.60546875 C-120.98373127 183.81167768 -123.49022757 186.96512464 -125.95703125 191.4609375 C-126.30121094 191.96882812 -126.64539063 192.47671875 -127 193 C-127.66 193 -128.32 193 -129 193 C-128.76333659 219.86741721 -128.09610973 245.4238797 -119 271 C-118.57733995 272.26536305 -118.15547251 273.5309911 -117.734375 274.796875 C-111.8965915 291.81407835 -103.18660016 307.91590124 -92 322 C-91.58314941 322.52964355 -91.16629883 323.05928711 -90.73681641 323.60498047 C-65.29612207 355.60725793 -30.92433689 378.50425391 9 388 C9.69512695 388.16967285 10.39025391 388.3393457 11.10644531 388.51416016 C44.13944562 396.48905904 79.86840951 393.31628483 111.75195312 382.5949707 C114 382 114 382 118 382 C117 385 117 385 115.26953125 385.9921875 C108.66440298 388.36541324 101.9567338 390.05466017 95.125 391.625 C94.22885986 391.83108887 93.33271973 392.03717773 92.40942383 392.24951172 C89.61246602 392.86993971 86.81095291 393.44646436 84 394 C83.02820801 394.19271484 82.05641602 394.38542969 81.05517578 394.58398438 C72.36256373 396.12191857 63.83334049 396.30723666 55.03515625 396.26074219 C52.63515792 396.25004527 50.23591294 396.26068732 47.8359375 396.2734375 C34.35784566 396.28711285 21.42710099 394.89122991 8.3125 391.625 C7.41023682 391.40295898 6.50797363 391.18091797 5.57836914 390.95214844 C-25.26342506 383.23128505 -52.01362663 367.78769746 -75 346 C-75.48791016 345.54463867 -75.97582031 345.08927734 -76.47851562 344.62011719 C-91.26525388 330.7448902 -102.519867 314.88090386 -112 297 C-112.33725098 296.36416992 -112.67450195 295.72833984 -113.02197266 295.07324219 C-122.11888523 277.56346686 -127.97187248 258.45171712 -131 239 C-131.29003906 237.20175781 -131.29003906 237.20175781 -131.5859375 235.3671875 C-132.04276474 231.56813503 -132.07272198 227.79702912 -132.10546875 223.97265625 C-132.12029297 222.68552734 -132.13511719 221.39839844 -132.15039062 220.07226562 C-132.18072916 217.40149568 -132.18037162 214.73597401 -132.16601562 212.06445312 C-132.3087617 203.41750173 -133.62504876 198.68888622 -139 192 C-150.63165467 170.30785098 -150.06027237 143.00204523 -152 119 C-149.64005113 119.38469583 -148.31583251 119.6788767 -146.61547852 121.40771484 C-146.00337524 122.30031006 -146.00337524 122.30031006 -145.37890625 123.2109375 C-144.69151367 124.20456299 -144.69151367 124.20456299 -143.99023438 125.21826172 C-143.51908203 125.92998535 -143.04792969 126.64170898 -142.5625 127.375 C-142.07458984 128.10090332 -141.58667969 128.82680664 -141.08398438 129.57470703 C-133.44597346 141.15731486 -128.85686261 153.11291624 -128 167 C-126.86814072 163.60442215 -127.30762964 161.46059468 -128 158 C-129.62919316 129.09893477 -125.23594388 100.73517143 -114 74 C-113.01 74 -112.02 74 -111 74 C-111 90.17 -111 106.34 -111 123 C-106.6958927 117.61986588 -106.5965915 117.44033396 -107.125 111.1875 C-107.55232124 100.17555288 -102.9583768 91.08974283 -98.328125 81.35546875 C-89.6641784 63.10625607 -84.74559861 46.11346462 -83 26 C-81.515 26.495 -81.515 26.495 -80 27 C-78.12046972 37.94155129 -76.70269838 48.69298417 -76.6875 59.8125 C-76.67976563 61.16142334 -76.67976563 61.16142334 -76.671875 62.53759766 C-76.75224399 70.19991956 -78.46678017 76.76222906 -81 84 C-80.29875 83.113125 -79.5975 82.22625 -78.875 81.3125 C-76.94597031 78.94505448 -75.4492224 77.61445568 -72.875 75.8125 C-69.1876201 72.89645977 -68.72619998 69.1800999 -67.6875 64.765625 C-62.14655856 42.47592877 -34.35946877 29.68996463 -16.3359375 18.78125 C-8.25758916 13.7297766 -4.14633415 8.44482735 0 0 Z " fill="#141414" transform="translate(208,42)"/>
<path d="M0 0 C20.79 0 41.58 0 63 0 C63 0.99 63 1.98 63 3 C62.16597656 3.10957031 61.33195312 3.21914062 60.47265625 3.33203125 C37.73363672 6.53581063 27.06438988 19.01375085 13.17578125 36.35546875 C10.869683 39.15839248 8.45848469 41.83003275 6 44.5 C2.72581577 48.05670244 -0.40642433 51.67161811 -3.4375 55.4375 C-7.09506264 59.97236161 -10.94617027 64.25536183 -14.91162109 68.51708984 C-18.70482872 72.61789068 -22.22885262 76.89845535 -25.72265625 81.2578125 C-28.99200156 85.19448558 -32.49917621 88.8887973 -36.03125 92.58984375 C-38.48822234 95.45873468 -38.48822234 95.45873468 -39 99 C-37.37539986 101.45945529 -37.37539986 101.45945529 -35 103.8125 C-34.16726562 104.69292969 -33.33453125 105.57335937 -32.4765625 106.48046875 C-29.89620198 109.10559893 -27.30264824 111.71441196 -24.67578125 114.29296875 C-22.88946557 116.11259568 -21.22522165 118.00453917 -19.5625 119.9375 C-17.14382221 122.74576347 -14.64100317 125.39970593 -12 128 C-8.72797872 131.2215855 -5.70683945 134.58592145 -2.71484375 138.06640625 C-1.03995701 139.95494597 0.69947587 141.73155648 2.5 143.5 C4.93389732 145.89053167 7.21355559 148.35046262 9.4375 150.9375 C11.85617779 153.74576347 14.35899683 156.39970593 17 159 C20.25029983 162.20029522 23.24724245 165.54224576 26.21875 169 C28.70257428 171.78885533 31.36711437 174.37686983 34.02734375 176.99609375 C36.57337829 179.58246151 38.92021557 182.3153528 41.28515625 185.06640625 C43.47284252 187.53315957 45.80892892 189.82222851 48.16186523 192.12988281 C49.91276812 193.91125033 51.54170873 195.74618461 53.1640625 197.64453125 C81.45673558 230.14004733 113.69590562 251.59619379 157 256 C157 257.32 157 258.64 157 260 C119.73637591 264.16104277 91.07091856 257.579759 61.203125 233.8359375 C57.02024982 230.35020818 53.01662446 226.67440085 49 223 C48.06542969 222.16984375 47.13085938 221.3396875 46.16796875 220.484375 C41.34895706 216.18615937 36.83313395 211.87088474 32.67578125 206.9296875 C30.87069336 204.85110145 28.9632479 202.92946352 27 201 C24.40017817 198.44009866 21.93731602 195.8322046 19.5625 193.0625 C16.99334729 190.07198284 14.30682744 187.26883316 11.5 184.5 C8.0711721 181.11758601 4.87951482 177.61929558 1.74609375 173.96484375 C-0.09615675 171.89179676 -2.02401662 169.94564198 -4 168 C-6.59982183 165.44009866 -9.06268398 162.8322046 -11.4375 160.0625 C-14.00665271 157.07198284 -16.69317256 154.26883316 -19.5 151.5 C-22.9288279 148.11758601 -26.12048518 144.61929558 -29.25390625 140.96484375 C-31.09615675 138.89179676 -33.02401662 136.94564198 -35 135 C-37.59982183 132.44009866 -40.06268398 129.8322046 -42.4375 127.0625 C-45.72130244 123.23889442 -49.25694661 119.72516909 -52.84375 116.1875 C-55.73485869 113.25449119 -58.37085709 110.16845427 -61 107 C-59.32198127 103.13774461 -56.79660053 100.01321305 -54.1875 96.75 C-53.70539063 96.1415625 -53.22328125 95.533125 -52.7265625 94.90625 C-48.47486077 89.55628261 -44.15881328 84.25856029 -39.83862305 78.96386719 C-35.88955433 74.11730939 -32.01282503 69.21934146 -28.16625977 64.29125977 C-24.6462464 59.7933588 -21.05131688 55.36023887 -17.4375 50.9375 C-12.68643801 45.11797078 -8.05002437 39.2286034 -3.49609375 33.25390625 C-0.21542642 28.9570678 3.14579485 24.72308803 6.51025391 20.49169922 C10.33093694 15.66109486 11.55170658 13.28945499 11 7 C8.06828386 3.48194063 4.37834373 3.42099459 0 3 C0 2.01 0 1.02 0 0 Z " fill="#030303" transform="translate(281,157)"/>
<path d="M0 0 C21.78 0 43.56 0 66 0 C66 0.99 66 1.98 66 3 C64.948125 3.11214844 64.948125 3.11214844 63.875 3.2265625 C57.03320105 4.17474659 51.74181566 5.76610913 47 11 C44.24747418 15.62434514 43.62107367 19.03354509 43.60559082 24.38729858 C43.59949972 25.10956937 43.59340861 25.83184016 43.58713293 26.57599795 C43.5705461 28.98490932 43.57527241 31.39328959 43.58007812 33.80224609 C43.57273525 35.53397672 43.56414839 37.26570244 43.55441284 38.99742126 C43.53221065 43.69377775 43.52926552 48.3899587 43.53116035 53.08636045 C43.53128012 57.01025657 43.52271349 60.93411557 43.51438284 64.85800135 C43.49515329 74.11727352 43.49226326 83.37645553 43.49902344 92.63574219 C43.50566361 102.18002474 43.4827998 111.72392077 43.44570971 121.26812494 C43.41499699 129.46959959 43.4036544 137.67095 43.40754652 145.87248099 C43.40961245 150.76773004 43.40415891 155.6626783 43.37965393 160.55787277 C43.35736346 165.16273783 43.35928365 169.76697521 43.37958145 174.37184334 C43.38298748 176.05845313 43.37791994 177.74510537 43.36359787 179.43165779 C43.19337347 191.58242917 43.19337347 191.58242917 49 202 C53.88620679 206.67764918 59.40240123 207.83200559 66 208 C66 208.99 66 209.98 66 211 C44.22 211 22.44 211 0 211 C0 210.01 0 209.02 0 208 C0.81984375 207.89042969 1.6396875 207.78085937 2.484375 207.66796875 C3.56203125 207.50941406 4.6396875 207.35085938 5.75 207.1875 C6.81734375 207.03667969 7.8846875 206.88585937 8.984375 206.73046875 C12.08114403 205.98034465 13.57861852 204.99055009 16 203 C16.66 203 17.32 203 18 203 C20.92851051 197.35215831 22.25078658 193.13633649 22.26742554 186.68153381 C22.27195665 185.95462276 22.27648776 185.22771171 22.28115618 184.47877306 C22.2937943 182.04836506 22.29218022 179.61818132 22.29052734 177.18774414 C22.29651289 175.44306653 22.30331849 173.69839157 22.31088257 171.95372009 C22.32854521 167.21821297 22.33323801 162.48277813 22.33451414 157.74724126 C22.33593592 154.78843576 22.34020599 151.82964864 22.34550858 148.8708477 C22.36400834 138.54808256 22.37217908 128.22536906 22.37060547 117.90258789 C22.36940345 108.28052667 22.39051785 98.65868955 22.4220928 89.03668505 C22.44824044 80.77412773 22.45897343 72.51164369 22.45769465 64.24904531 C22.45718466 59.31475949 22.46288879 54.38067291 22.48405075 49.4464283 C22.50340815 44.80637219 22.50357477 40.16670594 22.48901749 35.52663612 C22.48692532 33.82467327 22.49165458 32.12268617 22.5037384 30.42076492 C22.51917963 28.0952015 22.50989164 25.77098434 22.49447632 23.44544983 C22.49556585 22.14484147 22.49665539 20.84423311 22.49777794 19.50421238 C21.91700674 15.41575153 20.43011417 13.28235824 18 10 C18 9.34 18 8.68 18 8 C17.2575 7.71125 16.515 7.4225 15.75 7.125 C13 6 13 6 11.125 4.96875 C8.76097734 3.89103379 6.83003113 3.60264981 4.25 3.375 C3.45078125 3.30023438 2.6515625 3.22546875 1.828125 3.1484375 C1.22484375 3.09945312 0.6215625 3.05046875 0 3 C0 2.01 0 1.02 0 0 Z " fill="#040404" transform="translate(167,157)"/>
<path d="M0 0 C2.35994887 0.38469583 3.68416749 0.6788767 5.38452148 2.40771484 C5.79259033 3.00277832 6.20065918 3.5978418 6.62109375 4.2109375 C7.07935547 4.87335449 7.53761719 5.53577148 8.00976562 6.21826172 C8.48091797 6.92998535 8.95207031 7.64170898 9.4375 8.375 C9.92541016 9.10090332 10.41332031 9.82680664 10.91601562 10.57470703 C18.55402654 22.15731486 23.14313739 34.11291624 24 48 C24.78879012 45.63362963 25.03798504 44.18765773 24.5378418 41.71679688 C23.54557541 36.70456791 23.81541049 31.59335564 23.8125 26.5 C23.80025391 25.37207031 23.78800781 24.24414062 23.77539062 23.08203125 C23.77345703 21.99277344 23.77152344 20.90351563 23.76953125 19.78125 C23.76542236 18.79189453 23.76131348 17.80253906 23.75708008 16.78320312 C24.01368938 13.84315685 24.77047047 11.66799076 26 9 C26.33 9 26.66 9 27 9 C27.33 17.25 27.66 25.5 28 34 C28.55429688 32.20691406 29.10859375 30.41382813 29.6796875 28.56640625 C30.41105834 26.2316455 31.14285093 23.89701683 31.875 21.5625 C32.23980469 20.37849609 32.60460937 19.19449219 32.98046875 17.97460938 C33.33496094 16.84990234 33.68945312 15.72519531 34.0546875 14.56640625 C34.37937012 13.52427979 34.70405273 12.48215332 35.03857422 11.40844727 C36 9 36 9 38 8 C38 9.98 38 11.96 38 14 C38.66 13.67 39.32 13.34 40 13 C39.41046333 16.34990781 38.58113843 19.31076971 37.2578125 22.44140625 C36.91492188 23.26737305 36.57203125 24.09333984 36.21875 24.94433594 C35.8578125 25.80833008 35.496875 26.67232422 35.125 27.5625 C32.08828849 34.96313824 29.53593645 42.12832569 28 50 C28.37769531 49.41734375 28.75539063 48.8346875 29.14453125 48.234375 C35.20420475 39.20872547 42.42269668 31.45638277 50.1875 23.875 C57.07450507 17.05855851 62.64900076 9.66016195 67 1 C67.99 1.33 68.98 1.66 70 2 C70.54240321 20.35130847 63.59496945 33.29276204 51.3190918 46.54467773 C46.21959666 51.93212407 40.78711708 56.96587696 34.99609375 61.60546875 C31.01626873 64.81167768 28.50977243 67.96512464 26.04296875 72.4609375 C25.69878906 72.96882813 25.35460937 73.47671875 25 74 C24.34 74 23.68 74 23 74 C23.23666341 100.86741721 23.90389027 126.4238797 33 152 C33.42266005 153.26536305 33.84452749 154.5309911 34.265625 155.796875 C40.1034085 172.81407835 48.81339984 188.91590124 60 203 C60.41685059 203.52964355 60.83370117 204.05928711 61.26318359 204.60498047 C86.70387793 236.60725793 121.07566311 259.50425391 161 269 C161.69512695 269.16967285 162.39025391 269.3393457 163.10644531 269.51416016 C196.13944562 277.48905904 231.86840951 274.31628483 263.75195312 263.5949707 C266 263 266 263 270 263 C269 266 269 266 267.26953125 266.9921875 C260.66440298 269.36541324 253.9567338 271.05466017 247.125 272.625 C246.22885986 272.83108887 245.33271973 273.03717773 244.40942383 273.24951172 C241.61246602 273.86993971 238.81095291 274.44646436 236 275 C235.02820801 275.19271484 234.05641602 275.38542969 233.05517578 275.58398438 C224.36256373 277.12191857 215.83334049 277.30723666 207.03515625 277.26074219 C204.63515792 277.25004527 202.23591294 277.26068732 199.8359375 277.2734375 C186.35784566 277.28711285 173.42710099 275.89122991 160.3125 272.625 C159.41023682 272.40295898 158.50797363 272.18091797 157.57836914 271.95214844 C126.73657494 264.23128505 99.98637337 248.78769746 77 227 C76.51208984 226.54463867 76.02417969 226.08927734 75.52148438 225.62011719 C60.73474612 211.7448902 49.480133 195.88090386 40 178 C39.66274902 177.36416992 39.32549805 176.72833984 38.97802734 176.07324219 C29.88111477 158.56346686 24.02812752 139.45171712 21 120 C20.80664062 118.80117188 20.61328125 117.60234375 20.4140625 116.3671875 C19.95723526 112.56813503 19.92727802 108.79702912 19.89453125 104.97265625 C19.87970703 103.68552734 19.86488281 102.39839844 19.84960938 101.07226562 C19.81927084 98.40149568 19.81962838 95.73597401 19.83398438 93.06445312 C19.6912383 84.41750173 18.37495124 79.68888622 13 73 C1.36834533 51.30785098 1.93972763 24.00204523 0 0 Z " fill="#121212" transform="translate(56,161)"/>
<path d="M0 0 C1.41433459 1.2611974 2.82154682 2.53036898 4.22827148 3.80004883 C5.66464791 5.03052829 7.10199974 6.25987101 8.54077148 7.48754883 C37.48210222 33.17297986 57.03443715 69.98246141 64.22827148 107.80004883 C64.37780273 108.56800781 64.52733398 109.3359668 64.68139648 110.12719727 C72.58065341 152.22819379 64.36370221 195.27492792 44.22827148 232.80004883 C43.23827148 232.80004883 42.24827148 232.80004883 41.22827148 232.80004883 C42.49902085 228.67817653 44.0778032 224.8394543 45.89355469 220.94042969 C53.03376481 205.5532513 58.54452644 189.83463381 60.89599609 172.99609375 C61.14456655 171.35326403 61.43016813 169.7159622 61.734375 168.08251953 C63.08957816 160.70700576 63.57953909 153.60632736 63.54077148 146.11254883 C63.53231201 144.36421753 63.53231201 144.36421753 63.52368164 142.58056641 C62.82255524 91.16578726 42.00361868 45.69106502 5.94702148 9.51098633 C-28.90250917 -23.3096333 -77.02589558 -39.50175967 -124.44750977 -38.41870117 C-143.50833273 -37.73953413 -161.87305726 -33.54441061 -179.83813477 -27.21557617 C-182.14675835 -26.416319 -184.39184913 -25.73527856 -186.77172852 -25.19995117 C-187.10172852 -26.18995117 -187.43172852 -27.17995117 -187.77172852 -28.19995117 C-126.93174882 -53.86852429 -50.12170372 -43.89607678 0 0 Z " fill="#181818" transform="translate(376.771728515625,111.199951171875)"/>
<path d="M0 0 C0.66 0.33 1.32 0.66 2 1 C2.53076172 3.36987305 2.53076172 3.36987305 2.9296875 6.51171875 C3.0829248 7.65527832 3.23616211 8.79883789 3.39404297 9.97705078 C3.55275879 11.20149902 3.71147461 12.42594727 3.875 13.6875 C5.23814233 23.46325042 6.77139339 32.6540335 10 42 C10.4241507 43.31348808 10.8472672 44.62731043 11.26953125 45.94140625 C18.39676305 67.5976134 28.89726135 87.83536264 44 105 C44.70640625 105.81597656 45.4128125 106.63195312 46.140625 107.47265625 C48.3869992 110.02204855 50.67917274 112.51821213 53 115 C54.32257813 116.42119141 54.32257813 116.42119141 55.671875 117.87109375 C78.05604551 141.37909125 108.62283667 157.53714403 140 165 C140.69512695 165.16967285 141.39025391 165.3393457 142.10644531 165.51416016 C175.13944562 173.48905904 210.86840951 170.31628483 242.75195312 159.5949707 C245 159 245 159 249 159 C248 162 248 162 246.26953125 162.9921875 C239.66440298 165.36541324 232.9567338 167.05466017 226.125 168.625 C225.22885986 168.83108887 224.33271973 169.03717773 223.40942383 169.24951172 C220.61246602 169.86993971 217.81095291 170.44646436 215 171 C213.54231201 171.28907227 213.54231201 171.28907227 212.05517578 171.58398438 C203.36256373 173.12191857 194.83334049 173.30723666 186.03515625 173.26074219 C183.63515792 173.25004527 181.23591294 173.26068732 178.8359375 173.2734375 C165.35784566 173.28711285 152.42710099 171.89122991 139.3125 168.625 C138.41023682 168.40295898 137.50797363 168.18091797 136.57836914 167.95214844 C105.73657494 160.23128505 78.98637337 144.78769746 56 123 C55.51208984 122.54463867 55.02417969 122.08927734 54.52148438 121.62011719 C39.73474612 107.7448902 28.480133 91.88090386 19 74 C18.66274902 73.36416992 18.32549805 72.72833984 17.97802734 72.07324219 C7.04954052 51.0380451 -1.18294639 25.92938741 -1 2 C-0.67 1.34 -0.34 0.68 0 0 Z " fill="#181818" transform="translate(77,265)"/>
<path d="M0 0 C10.90794618 10.08195471 16.31095446 25.95827699 17.21777344 40.48974609 C17.53873332 50.65038109 17.8467073 60.97194987 16 71 C4.1639448 58.28719997 3.36931209 39.36988671 1.8125 23 C1.63423444 21.20955849 1.45520323 19.41919305 1.27539062 17.62890625 C1.10609542 15.91933758 0.93745159 14.20970426 0.76953125 12.5 C0.6914473 11.7052124 0.61336334 10.9104248 0.53291321 10.09155273 C0.211427 6.70418586 0 3.40637871 0 0 Z " fill="#F7F7F7" transform="translate(60,168)"/>
<path d="M0 0 C0.495 0.99 0.495 0.99 1 2 C0.32904297 2.61101562 0.32904297 2.61101562 -0.35546875 3.234375 C-2.1296282 5.13917327 -3.10935292 6.94560104 -4.3125 9.25 C-9.74267088 18.54132253 -18.00558773 26.0823835 -25.640625 33.57421875 C-28.66471302 36.58900319 -31.25992076 39.70069931 -33.8125 43.125 C-34.56144531 44.11757812 -35.31039062 45.11015625 -36.08203125 46.1328125 C-37.81666933 48.72593746 -38.98374419 51.06414988 -40 54 C-41.65956468 49.92936965 -40.28395105 46.37492165 -39.0625 42.375 C-38.84086182 41.63660889 -38.61922363 40.89821777 -38.39086914 40.13745117 C-36.58604578 34.37377779 -34.38089509 28.83316556 -31.9375 23.3125 C-31.60951416 22.57112793 -31.28152832 21.82975586 -30.94360352 21.06591797 C-27.29506489 13.08809568 -24.12428491 8.42446897 -16.0625 4.75 C-15.35931641 4.41226563 -14.65613281 4.07453125 -13.93164062 3.7265625 C-11.96558191 2.79051955 -9.98731289 1.88982582 -8 1 C-7.07058594 0.57203125 -6.14117187 0.1440625 -5.18359375 -0.296875 C-3 -1 -3 -1 0 0 Z " fill="#F7F7F7" transform="translate(124,160)"/>
<path d="M0 0 C0.33 0 0.66 0 1 0 C1 15.4604754 -8.05935016 27.16041559 -18.51171875 37.63671875 C-22.25545774 41.28201924 -26.06340557 44.84154164 -30.01171875 48.265625 C-31.99762211 49.9427577 -31.99762211 49.9427577 -33.64453125 51.734375 C-35 53 -35 53 -37 53 C-37.66 54.32 -38.32 55.64 -39 57 C-40.841513 52.15451892 -38.55828864 48.577852 -36.578125 44.08984375 C-34.25225668 39.53597782 -31.36624528 35.82681808 -28 32 C-27.30777344 31.19949219 -26.61554688 30.39898437 -25.90234375 29.57421875 C-22.08855936 25.24923927 -18.14062793 21.13723636 -14 17.125 C-9.32047872 12.52603386 -5.52443297 7.5894548 -1.71484375 2.2734375 C-1.14894531 1.52320313 -0.58304688 0.77296875 0 0 Z " fill="#F5F5F5" transform="translate(122,170)"/>
<path d="M0 0 C4.93642642 7.40463962 2.98446724 21.93448851 1.59716797 30.48193359 C-1.61535952 44.12667259 -10.20490979 54.91614541 -18.48828125 65.8515625 C-18.94759033 66.45822754 -19.40689941 67.06489258 -19.88012695 67.68994141 C-20.24968506 68.12226074 -20.61924316 68.55458008 -21 69 C-21.33 69 -21.66 69 -22 69 C-22.71368513 56.15366766 -16.52279525 45.19467561 -11.1184082 33.90234375 C-6.44884963 24.10807547 -3.30399869 14.59979173 -1 4 C-0.67285822 2.66513403 -0.3431131 1.33085021 0 0 Z " fill="#F7F7F7" transform="translate(126,85)"/>
<path d="M0 0 C-11.57859908 6.23273525 -22.3631383 9.06348398 -35.50390625 9.24609375 C-37.14909328 9.27906104 -38.79427545 9.31227216 -40.43945312 9.34570312 C-42.99060428 9.39275254 -45.54174 9.43717753 -48.09301758 9.47680664 C-58.56584473 9.64688951 -68.65948527 10.18444118 -79 12 C-64.8156971 -2.46159661 -41.19713185 -0.05544109 -22.24560547 -0.55761719 C-19.71170045 -0.62603411 -17.17816479 -0.70348645 -14.64453125 -0.78125 C-13.02866078 -0.82606314 -11.41277573 -0.87035422 -9.796875 -0.9140625 C-9.0417865 -0.93796051 -8.286698 -0.96185852 -7.50872803 -0.98648071 C-2.22909117 -1.11454559 -2.22909117 -1.11454559 0 0 Z " fill="#F2F2F2" transform="translate(215,110)"/>
<path d="M0 0 C0.495 0.99 0.495 0.99 1 2 C-8.32950503 15.9421374 -19.56609002 23.8790676 -33.61669922 32.52880859 C-47.1693779 40.6626254 -47.1693779 40.6626254 -58 52 C-59.21261605 48.36215186 -58.7538616 47.72853859 -57.125 44.375 C-48.30321632 27.96127916 -28.55311783 17.87123765 -13.00024414 8.63916016 C-8.4934607 5.96225022 -4.22820987 3.10068724 0 0 Z " fill="#F4F4F4" transform="translate(202,57)"/>
<path d="M0 0 C-10.78924849 11.66602715 -22.36930205 19.25724224 -36.98486328 25.16943359 C-39.02684115 26.01106295 -41.04327426 26.89732851 -43.05859375 27.80078125 C-44.02261108 28.22967651 -44.02261108 28.22967651 -45.00610352 28.66723633 C-46.7726716 29.45440337 -48.53869643 30.24278929 -50.3046875 31.03125 C-51.19414063 31.3509375 -52.08359375 31.670625 -53 32 C-53.66 31.67 -54.32 31.34 -55 31 C-45.46803251 20.40234671 -15.22097374 -5.07365791 0 0 Z " fill="#F7F7F7" transform="translate(158,132)"/>
<path d="M0 0 C0.33 0 0.66 0 1 0 C1.63627981 35.65451034 1.63627981 35.65451034 -2 49 C-2.23058105 49.8564209 -2.46116211 50.7128418 -2.69873047 51.59521484 C-3.93285774 56.09203168 -5.22184485 60.57174251 -6.59765625 65.02734375 C-6.81945557 65.74656006 -7.04125488 66.46577637 -7.26977539 67.20678711 C-8 69 -8 69 -10 71 C-10.63602518 46.23089633 -7.85486664 23.56459992 0 0 Z " fill="#F7F7F7" transform="translate(93,126)"/>
<path d="M0 0 C0.99 0 1.98 0 3 0 C3.02472528 5.90820002 3.04287204 11.8163699 3.05493164 17.72460938 C3.05995931 19.73438034 3.06678233 21.74414764 3.07543945 23.75390625 C3.08757351 26.64323835 3.09324399 29.53252207 3.09765625 32.421875 C3.10281754 33.31992859 3.10797882 34.21798218 3.11329651 35.14324951 C3.11340981 36.4041037 3.11340981 36.4041037 3.11352539 37.69042969 C3.115746 38.42767273 3.11796661 39.16491577 3.12025452 39.92449951 C2.99643498 42.06152957 2.58521369 43.94523924 2 46 C1.34 46 0.68 46 0 46 C-0.33 35.11 -0.66 24.22 -1 13 C-5.29113422 27.68521488 -8.36028499 41.7981977 -10 57 C-10.99 56.34 -11.98 55.68 -13 55 C-12.93269447 36.18810387 -7.24094201 17.22933364 0 0 Z " fill="#191919" transform="translate(94,116)"/>
<path d="M0 0 C2.35994887 0.38469583 3.68416749 0.6788767 5.38452148 2.40771484 C5.79259033 3.00277832 6.20065918 3.5978418 6.62109375 4.2109375 C7.07943604 4.87343506 7.53777832 5.53593262 8.01000977 6.21850586 C8.48108154 6.93014893 8.95215332 7.64179199 9.4375 8.375 C9.92468506 9.10017822 10.41187012 9.82535645 10.91381836 10.57250977 C16.45460496 18.97816133 20.20790409 27.06201359 22 37 C21.34 37 20.68 37 20 37 C19.67 37.66 19.34 38.32 19 39 C18.74347656 38.01902344 18.48695312 37.03804687 18.22265625 36.02734375 C17.83708484 34.66373756 17.45029729 33.30047484 17.0625 31.9375 C16.89943359 31.30005859 16.73636719 30.66261719 16.56835938 30.00585938 C14.09661179 21.53708485 9.8633554 16.10559233 5 8 C6.32 22.85 7.64 37.7 9 53 C8.34 53 7.68 53 7 53 C6.67 53.66 6.34 54.32 6 55 C4.38150361 42.27754284 2.80476042 29.5504277 1.3125 16.8125 C1.11563599 15.15758545 1.11563599 15.15758545 0.91479492 13.46923828 C0.79467041 12.43395996 0.6745459 11.39868164 0.55078125 10.33203125 C0.44419189 9.42171143 0.33760254 8.5113916 0.2277832 7.57348633 C0.00299038 5.03378521 -0.04048279 2.54811901 0 0 Z " fill="#151515" transform="translate(56,161)"/>
<path d="M0 0 C-1 3 -1 3 -2.73046875 3.9921875 C-17.77775879 9.39868599 -35.89690068 14.32031481 -52 14 C-52 13.67 -52 13.34 -52 13 C-60.91 12.67 -69.82 12.34 -79 12 C-79 11.67 -79 11.34 -79 11 C-77.70304199 10.97812622 -77.70304199 10.97812622 -76.37988281 10.95581055 C-51.74205432 10.49282878 -29.7683288 8.50401412 -6.24804688 0.5949707 C-4 0 -4 0 0 0 Z " fill="#1F1F1F" transform="translate(326,424)"/>
<path d="M0 0 C-2.62455879 6.12397052 -9.00591272 11.25984581 -15 14 C-15.99 13.67 -16.98 13.34 -18 13 C-16.66666667 11.66666667 -15.33333333 10.33333333 -14 9 C-27.86 9 -41.72 9 -56 9 C-55.67 8.34 -55.34 7.68 -55 7 C-53.35185303 6.98598145 -53.35185303 6.98598145 -51.67041016 6.97167969 C-47.55119908 6.93147782 -43.43271141 6.86563894 -39.31396484 6.79248047 C-37.53932058 6.76444451 -35.76455547 6.7431445 -33.98974609 6.72900391 C-20.005378 6.7155171 -20.005378 6.7155171 -7 2 C-4.26931013 0.50512979 -3.19508908 0 0 0 Z " fill="#080808" transform="translate(227,101)"/>
<path d="M0 0 C0 0.33 0 0.66 0 1 C2.475 1.495 2.475 1.495 5 2 C5 2.33 5 2.66 5 3 C4.06607422 3.02126953 4.06607422 3.02126953 3.11328125 3.04296875 C-11.66138183 3.80539906 -26.17636781 8.09111731 -40.06640625 12.984375 C-42.37502984 13.78363217 -44.62012061 14.46467261 -47 15 C-47.33 14.01 -47.66 13.02 -48 12 C-33.75470308 5.98986575 -15.67051171 -0.82476377 0 0 Z " fill="#1D1D1D" transform="translate(237,71)"/>
<path d="M0 0 C0.33 0.99 0.66 1.98 1 3 C1.99 3 2.98 3 4 3 C5.18442968 8.62840984 5.18366891 14.1513541 5.1875 19.875 C5.19974609 20.83019531 5.21199219 21.78539063 5.22460938 22.76953125 C5.2403322 30.41082637 3.86115443 36.76755074 1.375 44 C1.11460938 44.763125 0.85421875 45.52625 0.5859375 46.3125 C0.39257812 46.869375 0.19921875 47.42625 0 48 C-0.99 47.34 -1.98 46.68 -3 46 C-2.79503906 45.32453125 -2.59007813 44.6490625 -2.37890625 43.953125 C-2.10949219 43.06109375 -1.84007813 42.1690625 -1.5625 41.25 C-1.29566406 40.36828125 -1.02882813 39.4865625 -0.75390625 38.578125 C-0.50511719 37.72734375 -0.25632812 36.8765625 0 36 C0.17781006 35.4026001 0.35562012 34.8052002 0.53881836 34.18969727 C1.09590951 31.54462024 1.12970684 29.09019813 1.1328125 26.38671875 C1.13410156 25.30326172 1.13539062 24.21980469 1.13671875 23.10351562 C1.13285156 21.97623047 1.12898438 20.84894531 1.125 19.6875 C1.12886719 18.57181641 1.13273437 17.45613281 1.13671875 16.30664062 C1.13015026 10.76611536 0.99190164 5.45545904 0 0 Z " fill="#1D1D1D" transform="translate(126,81)"/>
<path d="M0 0 C0.99 0.33 1.98 0.66 3 1 C3.19762956 7.68646662 3.3259854 13.63414522 1 20 C0.67322266 21.07121094 0.67322266 21.07121094 0.33984375 22.1640625 C-0.375 24.375 -0.375 24.375 -2 28 C-4.1015625 28.7265625 -4.1015625 28.7265625 -6 29 C-4 23 -4 23 -3.19921875 20.7734375 C-1.7774902 16.74408359 -0.5798177 13.34188375 -1 9 C-1.31453125 9.48210937 -1.6290625 9.96421875 -1.953125 10.4609375 C-6.16528926 16.67768595 -6.16528926 16.67768595 -10 18 C-10.66 18.33 -11.32 18.66 -12 19 C-10.65118169 16.1032521 -9.09755139 13.69662625 -7.125 11.1875 C-4.38362814 7.60624706 -2.14666315 3.96307043 0 0 Z " fill="#161616" transform="translate(123,162)"/>
<path d="M0 0 C0.66 0.33 1.32 0.66 2 1 C-0.84906495 5.8777208 -3.37924051 8.25127162 -8.375 11.12890625 C-9.28451416 11.66438332 -9.28451416 11.66438332 -10.21240234 12.2106781 C-12.13439676 13.34088564 -14.06588319 14.4531845 -16 15.5625 C-17.93327066 16.67664137 -19.86372101 17.79474056 -21.78759766 18.92503357 C-23.53207474 19.94934307 -25.28534733 20.95862971 -27.0390625 21.96704102 C-30.03643298 24.02501463 -31.90261463 26.05310961 -34 29 C-34.66 28.67 -35.32 28.34 -36 28 C-33.98968205 23.247769 -32.20222904 21.00273756 -27.7734375 18.37890625 C-26.74089844 17.75306641 -25.70835937 17.12722656 -24.64453125 16.48242188 C-23.56558594 15.84884766 -22.48664063 15.21527344 -21.375 14.5625 C-13.88097948 10.09262329 -6.73934915 5.56033853 0 0 Z " fill="#191919" transform="translate(188,75)"/>
<path d="M0 0 C0.33 0 0.66 0 1 0 C2.32 13.86 3.64 27.72 5 42 C4.34 42 3.68 42 3 42 C2.67 42.66 2.34 43.32 2 44 C0.22644561 30.67915496 -1.427119 17.43307162 -2 4 C-1.34 4 -0.68 4 0 4 C0 2.68 0 1.36 0 0 Z " fill="#212121" transform="translate(60,172)"/>
<path d="M0 0 C1.98 0 3.96 0 6 0 C4.39207084 3.98198927 1.62663697 6.71819493 -1.375 9.6875 C-1.90230713 10.21061768 -2.42961426 10.73373535 -2.97290039 11.27270508 C-17.13878156 25.04409867 -17.13878156 25.04409867 -25 26 C-23.6409755 21.92292649 -20.85976023 20.60367422 -17.4375 18.3125 C-12.24653558 14.74585617 -7.71031223 11.08134346 -3.453125 6.3984375 C-2 5 -2 5 0 5 C-0.33 4.01 -0.66 3.02 -1 2 C-0.67 1.34 -0.34 0.68 0 0 Z " fill="#0F0F0F" transform="translate(159,127)"/>
<path d="M0 0 C0.99 0.33 1.98 0.66 3 1 C3.33776684 2.7491497 3.67003671 4.49936145 4 6.25 C4.185625 7.22453125 4.37125 8.1990625 4.5625 9.203125 C5 12 5 12 5 16 C4.01 16 3.02 16 2 16 C1.69255859 17.48113281 1.69255859 17.48113281 1.37890625 18.9921875 C1.10949219 20.27351563 0.84007813 21.55484375 0.5625 22.875 C0.29566406 24.15117188 0.02882813 25.42734375 -0.24609375 26.7421875 C-1 30 -1 30 -2 32 C-2.66 32 -3.32 32 -4 32 C-3.33346916 24.76252805 -2.4417338 17.57280969 -1.4375 10.375 C-1.29892578 9.37082031 -1.16035156 8.36664063 -1.01757812 7.33203125 C-0.6800396 4.88778676 -0.34082223 2.44378839 0 0 Z " fill="#121212" transform="translate(125,68)"/>
<path d="M0 0 C0.85145599 -0.00095673 1.70291199 -0.00191345 2.58016968 -0.00289917 C4.37375971 -0.00357771 6.16735223 -0.0017462 7.9609375 0.00244141 C10.70838915 0.00780752 13.45567832 0.00247859 16.203125 -0.00390625 C17.94791703 -0.00324567 19.69270895 -0.00196492 21.4375 0 C22.25940826 -0.00202423 23.08131653 -0.00404846 23.9281311 -0.00613403 C27.23457302 0.00749997 29.92721739 0.0799058 33.0859375 1.1328125 C33.0859375 1.7928125 33.0859375 2.4528125 33.0859375 3.1328125 C17.2459375 3.1328125 1.4059375 3.1328125 -14.9140625 3.1328125 C-14.5840625 2.4728125 -14.2540625 1.8128125 -13.9140625 1.1328125 C-9.39649209 -0.25644765 -4.68010242 -0.01158341 0 0 Z " fill="#0D0D0D" transform="translate(250.9140625,69.8671875)"/>
<path d="M0 0 C0.33 0.66 0.66 1.32 1 2 C1.66 2 2.32 2 3 2 C2.87447754 2.58700684 2.74895508 3.17401367 2.61962891 3.77880859 C1.25188712 10.3648527 0.24745203 16.95697374 -0.625 23.625 C-0.7590625 24.62917969 -0.893125 25.63335937 -1.03125 26.66796875 C-1.35706877 29.11160952 -1.67993814 31.55559973 -2 34 C-2.99 33.34 -3.98 32.68 -5 32 C-4.6443896 20.94051671 -2.61149265 10.71319311 0 0 Z " fill="#262626" transform="translate(86,139)"/>
<path d="M0 0 C-0.33 0.99 -0.66 1.98 -1 3 C-1.82628906 3.09539062 -2.65257812 3.19078125 -3.50390625 3.2890625 C-7.63774598 4.12968689 -11.11894478 5.62648465 -14.9375 7.375 C-16.30068219 7.9871998 -17.6639627 8.59918071 -19.02734375 9.2109375 C-19.68460449 9.50838867 -20.34186523 9.80583984 -21.01904297 10.11230469 C-23.9966126 11.44659643 -26.99716867 12.72369881 -30 14 C-30.33 13.01 -30.66 12.02 -31 11 C-28.00262913 9.55697227 -25.00164264 8.12161815 -22 6.6875 C-21.16082031 6.28337891 -20.32164062 5.87925781 -19.45703125 5.46289062 C-4.77227537 -1.53798137 -4.77227537 -1.53798137 0 0 Z " fill="#202020" transform="translate(159,129)"/>
<path d="M0 0 C20.72340426 3 20.72340426 3 29 6 C28.67 6.99 28.34 7.98 28 9 C23.51333806 8.12127589 19.03264945 7.23052311 14.5703125 6.234375 C7.71485926 4.70427384 1.01316296 3.46862149 -6 3 C-6 2.67 -6 2.34 -6 2 C-4.02 2 -2.04 2 0 2 C0 1.34 0 0.68 0 0 Z " fill="#191919" transform="translate(284,71)"/>
<path d="M0 0 C19.305 0.495 19.305 0.495 39 1 C38.67 1.66 38.34 2.32 38 3 C33.55257542 3.02483101 29.10518822 3.04292183 24.65771484 3.05493164 C23.14663998 3.05994162 21.63556991 3.06675144 20.12451172 3.07543945 C17.94497488 3.08765176 15.76550247 3.09326178 13.5859375 3.09765625 C11.62213135 3.10551147 11.62213135 3.10551147 9.61865234 3.11352539 C6.30986487 3.00972117 3.24404982 2.63432368 0 2 C0 1.34 0 0.68 0 0 Z " fill="#000000" transform="translate(236,435)"/>
<path d="M0 0 C0.33 1.32 0.66 2.64 1 4 C1.66 4 2.32 4 3 4 C2.38580826 12.59868438 0.19092979 20.69484752 -2 29 C-2.99 29 -3.98 29 -5 29 C-4.731875 27.741875 -4.46375 26.48375 -4.1875 25.1875 C-2.50877475 16.84218237 -1.29539706 8.4114449 0 0 Z " fill="#111111" transform="translate(439,276)"/>
<path d="M0 0 C0.66 0.33 1.32 0.66 2 1 C2.50244141 3.31665039 2.50244141 3.31665039 2.8515625 6.34765625 C2.98046875 7.42724609 3.109375 8.50683594 3.2421875 9.61914062 C3.36851563 10.75544922 3.49484375 11.89175781 3.625 13.0625 C3.7590625 14.20267578 3.893125 15.34285156 4.03125 16.51757812 C4.3624025 19.34420123 4.68492069 22.17154752 5 25 C4.34 25 3.68 25 3 25 C2.67 25.66 2.34 26.32 2 27 C1.49420286 23.95919579 0.99519241 20.91753354 0.5 17.875 C0.35691406 17.0190625 0.21382813 16.163125 0.06640625 15.28125 C-1.81554324 3.63108648 -1.81554324 3.63108648 0 0 Z " fill="#1A1A1A" transform="translate(77,265)"/>
<path d="M0 0 C0 0.66 0 1.32 0 2 C-1.72807318 2.33895656 -3.45751974 2.67091525 -5.1875 3 C-6.63189453 3.2784375 -6.63189453 3.2784375 -8.10546875 3.5625 C-10.7934206 3.96877612 -13.28771019 4.07933572 -16 4 C-16 3.67 -16 3.34 -16 3 C-24.91 2.67 -33.82 2.34 -43 2 C-43 1.67 -43 1.34 -43 1 C-38.64419676 0.85528126 -34.28832281 0.71297609 -29.93237305 0.57275391 C-28.45546422 0.52488889 -26.97857536 0.47640349 -25.50170898 0.42724609 C-16.9996846 0.14471019 -8.50811051 -0.08219294 0 0 Z " fill="#424242" transform="translate(290,434)"/>
<path d="M0 0 C0.58910156 0.48855469 1.17820313 0.97710937 1.78515625 1.48046875 C1.1804248 1.53581787 0.57569336 1.59116699 -0.04736328 1.64819336 C-2.81173841 1.9025074 -5.57578782 2.16020957 -8.33984375 2.41796875 C-9.29117188 2.50498047 -10.2425 2.59199219 -11.22265625 2.68164062 C-15.92430856 3.12242053 -20.56816877 3.6121507 -25.21484375 4.48046875 C-24.59765625 2.55859375 -24.59765625 2.55859375 -23.21484375 0.48046875 C-17.02424327 -1.3784651 -5.66283626 -3.88508519 0 0 Z " fill="#1F1F1F" transform="translate(174.21484375,109.51953125)"/>
<path d="M0 0 C0.66 0.33 1.32 0.66 2 1 C1 4 1 4 -2.2109375 5.796875 C-3.59500359 6.45628243 -4.98331711 7.10682365 -6.375 7.75 C-12.59382258 10.71608197 -18.28363003 13.92842738 -23.9609375 17.84765625 C-24.63382813 18.22792969 -25.30671875 18.60820313 -26 19 C-26.66 18.67 -27.32 18.34 -28 18 C-21.15184065 12.91856481 -14.00330797 8.55324364 -6.62719727 4.28955078 C-5.91362061 3.87688965 -5.20004395 3.46422852 -4.46484375 3.0390625 C-3.49985962 2.48532959 -3.49985962 2.48532959 -2.51538086 1.92041016 C-1.00749596 1.08659118 -1.00749596 1.08659118 0 0 Z " fill="#D2D2D2" transform="translate(184,82)"/>
<path d="M0 0 C0 0.33 0 0.66 0 1 C2.475 1.495 2.475 1.495 5 2 C5 2.33 5 2.66 5 3 C4.26136719 3.04898438 3.52273437 3.09796875 2.76171875 3.1484375 C-4.2703391 3.66668319 -11.09041062 4.59903995 -18 6 C-18.33 5.01 -18.66 4.02 -19 3 C-16.96040523 2.49161436 -14.91820862 1.99366114 -12.875 1.5 C-11.73804688 1.2215625 -10.60109375 0.943125 -9.4296875 0.65625 C-6.18533302 0.03546235 -3.29185543 -0.12006768 0 0 Z " fill="#262626" transform="translate(237,71)"/>
<path d="M0 0 C0.33 0 0.66 0 1 0 C1.02892857 3.95831809 1.04677427 7.91660917 1.0625 11.875 C1.07087891 13.00292969 1.07925781 14.13085938 1.08789062 15.29296875 C1.09111328 16.36933594 1.09433594 17.44570313 1.09765625 18.5546875 C1.10289307 19.54968262 1.10812988 20.54467773 1.11352539 21.56982422 C1 24 1 24 0 26 C-0.66 26 -1.32 26 -2 26 C-2.4380531 4.87610619 -2.4380531 4.87610619 0 0 Z " fill="#0D0D0D" transform="translate(442,254)"/>
<path d="M0 0 C2.625 0.375 2.625 0.375 5 1 C5.625 2.8125 5.625 2.8125 6 5 C5.01 6.485 5.01 6.485 4 8 C1.4375 8.25 1.4375 8.25 -1 8 C-2 7 -2 7 -2.1875 4.5625 C-2 2 -2 2 0 0 Z " fill="#0E0E0E" transform="translate(338,414)"/>
<path d="M0 0 C2.625 0.375 2.625 0.375 5 1 C5.625 3.375 5.625 3.375 6 6 C5.34 6.66 4.68 7.32 4 8 C1.375 7.625 1.375 7.625 -1 7 C-1.625 4.625 -1.625 4.625 -2 2 C-1.34 1.34 -0.68 0.68 0 0 Z " fill="#090909" transform="translate(389,377)"/>
<path d="M0 0 C2.625 0.375 2.625 0.375 5 1 C5.625 3.375 5.625 3.375 6 6 C5.34 6.66 4.68 7.32 4 8 C1.375 7.625 1.375 7.625 -1 7 C-1.625 4.625 -1.625 4.625 -2 2 C-1.34 1.34 -0.68 0.68 0 0 Z " fill="#090909" transform="translate(409,352)"/>
<path d="M0 0 C0.33 0.99 0.66 1.98 1 3 C1.99 3 2.98 3 4 3 C4.33 7.29 4.66 11.58 5 16 C4.34 16 3.68 16 3 16 C3 19.63 3 23.26 3 27 C2.67 27 2.34 27 2 27 C1.97494385 26.43079834 1.9498877 25.86159668 1.92407227 25.27514648 C1.80706106 22.66242687 1.6848172 20.04997638 1.5625 17.4375 C1.52318359 16.54224609 1.48386719 15.64699219 1.44335938 14.72460938 C1.20667217 9.7541781 0.80178328 4.91176481 0 0 Z " fill="#2C2C2C" transform="translate(126,81)"/>
<path d="M0 0 C0 0.66 0 1.32 0 2 C-6.05022986 4.66557258 -11.38914524 6.51030705 -18 7 C-15.56172774 2.84881962 -12.97082722 1.99937905 -8.4375 0.6875 C-6.70306641 0.16736328 -6.70306641 0.16736328 -4.93359375 -0.36328125 C-2 -1 -2 -1 0 0 Z " fill="#1F1F1F" transform="translate(210,114)"/>
<path d="M0 0 C1 3 1 3 -0.21484375 5.91796875 C-0.78332031 6.99691406 -1.35179687 8.07585937 -1.9375 9.1875 C-2.50339844 10.27417969 -3.06929688 11.36085938 -3.65234375 12.48046875 C-4.09707031 13.31191406 -4.54179687 14.14335937 -5 15 C-5.99 15 -6.98 15 -8 15 C-6.53200483 10.10668277 -4.66971326 5.36956975 -2 1 C-1.34 0.67 -0.68 0.34 0 0 Z " fill="#101010" transform="translate(426,329)"/>
<path d="M0 0 C0.66 0 1.32 0 2 0 C2.02698422 2.43757413 2.04683099 4.87484915 2.0625 7.3125 C2.07087891 8.00279297 2.07925781 8.69308594 2.08789062 9.40429688 C2.10307906 12.5483025 2.00193327 14.99420019 1 18 C0.34 18 -0.32 18 -1 18 C-0.505 9.09 -0.505 9.09 0 0 Z " fill="#0A0A0A" transform="translate(129,97)"/>
<path d="M0 0 C0.33 0.66 0.66 1.32 1 2 C1.66 2 2.32 2 3 2 C2.33407954 4.7694823 1.59450236 7.48676114 0.6875 10.1875 C0.46449219 10.88230469 0.24148437 11.57710937 0.01171875 12.29296875 C-1 14 -1 14 -3.10546875 14.73828125 C-3.73066406 14.82464844 -4.35585937 14.91101563 -5 15 C-3.33333333 10 -1.66666667 5 0 0 Z " fill="#212121" transform="translate(122,176)"/>
<path d="M0 0 C0.33 0.66 0.66 1.32 1 2 C1.66 2 2.32 2 3 2 C2.54965877 3.62723299 2.08944646 5.25173664 1.625 6.875 C1.36976562 7.77992187 1.11453125 8.68484375 0.8515625 9.6171875 C0 12 0 12 -2 14 C-2.66 14 -3.32 14 -4 14 C-3.21824485 9.15311808 -1.60155722 4.6233633 0 0 Z " fill="#1F1F1F" transform="translate(120,98)"/>
<path d="M0 0 C0.99 0.33 1.98 0.66 3 1 C1.66666667 2.33333333 0.33333333 3.66666667 -1 5 C-1.845625 5.9075 -2.69125 6.815 -3.5625 7.75 C-6 10 -6 10 -9 10 C-6.94418499 4.97467443 -4.8413965 2.52156068 0 0 Z " fill="#131313" transform="translate(161,93)"/>
<path d="M0 0 C-0.99 1.485 -0.99 1.485 -2 3 C-5.0390625 3.29296875 -5.0390625 3.29296875 -8.625 3.1875 C-9.81351563 3.16042969 -11.00203125 3.13335937 -12.2265625 3.10546875 C-13.14179688 3.07066406 -14.05703125 3.03585938 -15 3 C-14.67 2.34 -14.34 1.68 -14 1 C-9.28474515 0.20080426 -4.78845757 -0.11971144 0 0 Z " fill="#0C0C0C" transform="translate(194,118)"/>
<path d="M0 0 C0.33 1.32 0.66 2.64 1 4 C1.66 4 2.32 4 3 4 C2.67 6.97 2.34 9.94 2 13 C1.01 12.67 0.02 12.34 -1 12 C-0.67 8.04 -0.34 4.08 0 0 Z " fill="#3A3A3A" transform="translate(439,276)"/>
<path d="M0 0 C0 0.66 0 1.32 0 2 C-3.3 2.66 -6.6 3.32 -10 4 C-10 3.34 -10 2.68 -10 2 C-11.32 1.67 -12.64 1.34 -14 1 C-9.27616037 0.34843591 -4.78025483 -0.11950637 0 0 Z " fill="#242424" transform="translate(300,432)"/>
<path d="M0 0 C0.66 0.33 1.32 0.66 2 1 C2 1.66 2 2.32 2 3 C-1.3 4.32 -4.6 5.64 -8 7 C-8.33 6.01 -8.66 5.02 -9 4 C-7.54618103 3.30300448 -6.08677047 2.61766134 -4.625 1.9375 C-3.40683594 1.36322266 -3.40683594 1.36322266 -2.1640625 0.77734375 C-1.44992188 0.52082031 -0.73578125 0.26429688 0 0 Z " fill="#1E1E1E" transform="translate(133,151)"/>
<path d="M0 0 C0 0.66 0 1.32 0 2 C-5.445 3.485 -5.445 3.485 -11 5 C-10.67 3.68 -10.34 2.36 -10 1 C-6.61981469 -0.04005702 -3.5219721 -0.08004482 0 0 Z " fill="#161616" transform="translate(219,75)"/>
<path d="M0 0 C3.96 0.33 7.92 0.66 12 1 C12 1.33 12 1.66 12 2 C10.35 2 8.7 2 7 2 C7 2.66 7 3.32 7 4 C4.03 3.67 1.06 3.34 -2 3 C-1.34 2.67 -0.68 2.34 0 2 C0 1.34 0 0.68 0 0 Z " fill="#333333" transform="translate(229,433)"/>
<path d="M0 0 C3.63 0 7.26 0 11 0 C11 0.99 11 1.98 11 3 C7.37 2.67 3.74 2.34 0 2 C0 1.34 0 0.68 0 0 Z " fill="#0D0D0D" transform="translate(236,435)"/>
<path d="M0 0 C2.97 0.33 5.94 0.66 9 1 C8.01 1.495 8.01 1.495 7 2 C7 2.66 7 3.32 7 4 C2.71 3.67 -1.58 3.34 -6 3 C-6 2.67 -6 2.34 -6 2 C-4.02 2 -2.04 2 0 2 C0 1.34 0 0.68 0 0 Z " fill="#2F2F2F" transform="translate(284,71)"/>
<path d="M0 0 C0.66 0.33 1.32 0.66 2 1 C1.67 1.99 1.34 2.98 1 4 C-1.06640625 4.94921875 -1.06640625 4.94921875 -3.5625 5.6875 C-4.38878906 5.93886719 -5.21507812 6.19023438 -6.06640625 6.44921875 C-6.70449219 6.63097656 -7.34257812 6.81273438 -8 7 C-8 6.34 -8 5.68 -8 5 C-6.3203125 3.67578125 -6.3203125 3.67578125 -4.125 2.3125 C-3.40570313 1.85488281 -2.68640625 1.39726563 -1.9453125 0.92578125 C-1.30335938 0.62027344 -0.66140625 0.31476563 0 0 Z " fill="#E6E6E6" transform="translate(184,82)"/>
<path d="M0 0 C0.33 0.66 0.66 1.32 1 2 C-2.3 2.66 -5.6 3.32 -9 4 C-8.67 2.68 -8.34 1.36 -8 0 C-4.71303767 -0.79953138 -3.28976808 -1.09658936 0 0 Z " fill="#1D1D1D" transform="translate(146,121)"/>
<path d="M0 0 C0.99 0.33 1.98 0.66 3 1 C2.62403791 3.78211944 2.32681541 5.5879284 0.5625 7.8125 C-1 9 -1 9 -3 9 C-1.125 2.25 -1.125 2.25 0 0 Z " fill="#212121" transform="translate(203,55)"/>
<path d="M0 0 C0.33 0 0.66 0 1 0 C1 3.63 1 7.26 1 11 C0.01 10.34 -0.98 9.68 -2 9 C-2.43132515 4.94554358 -2.30019361 3.45029042 0 0 Z " fill="#212121" transform="translate(83,162)"/>
<path d="M0 0 C2.97 0.33 5.94 0.66 9 1 C9 1.66 9 2.32 9 3 C6.36 3 3.72 3 1 3 C0.67 2.01 0.34 1.02 0 0 Z " fill="#171717" transform="translate(220,432)"/>
<path d="M0 0 C0.33 0 0.66 0 1 0 C1.33 3.3 1.66 6.6 2 10 C1.34 10 0.68 10 0 10 C-0.33 10.66 -0.66 11.32 -1 12 C-1.33 9.36 -1.66 6.72 -2 4 C-1.34 4 -0.68 4 0 4 C0 2.68 0 1.36 0 0 Z " fill="#292929" transform="translate(80,280)"/>
<path d="M0 0 C0.66 0.33 1.32 0.66 2 1 C-1.32307692 5.8 -1.32307692 5.8 -4.75 6.8125 C-5.4925 6.874375 -6.235 6.93625 -7 7 C-5.66667905 3.00003714 -3.5042173 2.16217663 0 0 Z " fill="#121212" transform="translate(177,83)"/>
<path d="M0 0 C2.64 0.66 5.28 1.32 8 2 C7.67 2.99 7.34 3.98 7 5 C4.03 4.505 4.03 4.505 1 4 C0.67 2.68 0.34 1.36 0 0 Z " fill="#252525" transform="translate(305,75)"/>
<path d="M0 0 C0.66 0.33 1.32 0.66 2 1 C-0.41556126 4.19199167 -2.68003538 6.74716687 -6 9 C-6.66 8.67 -7.32 8.34 -8 8 C-5.36 5.36 -2.72 2.72 0 0 Z " fill="#E8E8E8" transform="translate(111,155)"/>
<path d="M0 0 C0.93065133 2.60582371 1.14917407 3.64198224 0.0625 6.25 C-0.4634375 7.11625 -0.4634375 7.11625 -1 8 C-1.66 8 -2.32 8 -3 8 C-2.74438677 5.6568787 -2.40729228 3.32156597 -2 1 C-1.34 0.67 -0.68 0.34 0 0 Z " fill="#1F1F1F" transform="translate(435,304)"/>
<path d="M0 0 C0.66 0.66 1.32 1.32 2 2 C-0.64 2.33 -3.28 2.66 -6 3 C-6.33 2.01 -6.66 1.02 -7 0 C-3.85179059 -1.04940314 -3.00659136 -1.066855 0 0 Z " fill="#303030" transform="translate(225,74)"/>
<path d="M0 0 C0.66 0 1.32 0 2 0 C2.33 2.97 2.66 5.94 3 9 C2.34 9 1.68 9 1 9 C0.67 6.03 0.34 3.06 0 0 Z " fill="#050505" transform="translate(80,290)"/>
<path d="M0 0 C1.98 0 3.96 0 6 0 C6 0.33 6 0.66 6 1 C7.65 1.33 9.3 1.66 11 2 C11 2.33 11 2.66 11 3 C7.7 3 4.4 3 1 3 C0.67 2.01 0.34 1.02 0 0 Z " fill="#222222" transform="translate(174,119)"/>
<path d="M0 0 C0.33 0.66 0.66 1.32 1 2 C-0.25 4.625 -0.25 4.625 -2 7 C-2.99 7 -3.98 7 -5 7 C-3.75023244 3.34683329 -3.32901247 2.21934164 0 0 Z " fill="#0F0F0F" transform="translate(119,189)"/>
<path d="M0 0 C0.66 0.33 1.32 0.66 2 1 C-1.625 6.875 -1.625 6.875 -5 8 C-3.8141763 4.62496331 -2.72426311 2.35277269 0 0 Z " fill="#1E1E1E" transform="translate(188,75)"/>
<path d="M0 0 C0.66 0.33 1.32 0.66 2 1 C1 4 1 4 -2.0625 5.6875 C-3.031875 6.120625 -4.00125 6.55375 -5 7 C-3.75023244 3.34683329 -3.32901247 2.21934164 0 0 Z " fill="#191919" transform="translate(181,67)"/>
<path d="M0 0 C0.66 0.33 1.32 0.66 2 1 C2 1.66 2 2.32 2 3 C-0.31 3.33 -2.62 3.66 -5 4 C-5 3.34 -5 2.68 -5 2 C-2.625 0.9375 -2.625 0.9375 0 0 Z " fill="#191919" transform="translate(150,130)"/>
<path d="M0 0 C0.33 0.99 0.66 1.98 1 3 C-0.3125 5.1875 -0.3125 5.1875 -2 7 C-2.66 7 -3.32 7 -4 7 C-3.39816251 4.97954558 -2.72693904 2.97888961 -2 1 C-1.34 0.67 -0.68 0.34 0 0 Z " fill="#101010" transform="translate(112,122)"/>
<path d="M0 0 C2 3 2 3 2 6 C1.34 6 0.68 6 0 6 C-0.33 6.66 -0.66 7.32 -1 8 C-1.33 6.02 -1.66 4.04 -2 2 C-1.34 2 -0.68 2 0 2 C0 1.34 0 0.68 0 0 Z " fill="#2F2F2F" transform="translate(76,192)"/>
<path d="M0 0 C0.33 0.99 0.66 1.98 1 3 C-0.375 4.5 -0.375 4.5 -2 6 C-2.66 6 -3.32 6 -4 6 C-2.25 1.125 -2.25 1.125 0 0 Z " fill="#0F0F0F" transform="translate(121,168)"/>
<path d="M0 0 C0.33 0 0.66 0 1 0 C1 1.98 1 3.96 1 6 C0.01 6.33 -0.98 6.66 -2 7 C-2.125 4.625 -2.125 4.625 -2 2 C-1.34 1.34 -0.68 0.68 0 0 Z " fill="#151515" transform="translate(89,134)"/>
<path d="M0 0 C0.33 0 0.66 0 1 0 C1 2.97 1 5.94 1 9 C0.01 9 -0.98 9 -2 9 C-1.34 6.03 -0.68 3.06 0 0 Z " fill="#DBDBDB" transform="translate(93,126)"/>
<path d="M0 0 C0.33 0.66 0.66 1.32 1 2 C1.66 2 2.32 2 3 2 C2.67 3.65 2.34 5.3 2 7 C1.01 7 0.02 7 -1 7 C-0.67 4.69 -0.34 2.38 0 0 Z " fill="#2A2A2A" transform="translate(127,113)"/>
<path d="M0 0 C0.66 0 1.32 0 2 0 C1.75 2.375 1.75 2.375 1 5 C-1.0625 6.3125 -1.0625 6.3125 -3 7 C-2.01 4.69 -1.02 2.38 0 0 Z " fill="#515151" transform="translate(155,97)"/>
</svg>
